<svg width="19" height="19" viewBox="0 0 19 19" fill="none" xmlns="http://www.w3.org/2000/svg">
<path d="M18.9935 19V18.9992H18.9983V12.031C18.9983 8.62205 18.2644 5.99609 14.2792 5.99609C12.3633 5.99609 11.0777 7.04743 10.5528 8.04414H10.4974V6.31434H6.71875V18.9992H10.6533V12.7181C10.6533 11.0643 10.9668 9.46518 13.0149 9.46518C15.0328 9.46518 15.0629 11.3525 15.0629 12.8242V19H18.9935Z" fill="white"/>
<path d="M0.313477 6.31543H4.25281V19.0003H0.313477V6.31543Z" fill="white"/>
<path d="M2.28158 0C1.02204 0 0 1.02204 0 2.28158C0 3.54113 1.02204 4.58454 2.28158 4.58454C3.54113 4.58454 4.56317 3.54113 4.56317 2.28158C4.56238 1.02204 3.54033 0 2.28158 0V0Z" fill="white"/>
</svg>
