<svg width="19" height="16" viewBox="0 0 19 16" fill="none" xmlns="http://www.w3.org/2000/svg">
<path d="M19 1.89415C18.2934 2.21538 17.5406 2.42831 16.7556 2.53169C17.5631 2.032 18.1794 1.24677 18.4692 0.300308C17.7163 0.765538 16.8851 1.09415 15.9992 1.27754C15.2843 0.488616 14.2654 0 13.1539 0C10.9974 0 9.26131 1.81415 9.26131 4.03815C9.26131 4.35815 9.28744 4.66585 9.35156 4.95877C6.11325 4.79508 3.24781 3.18646 1.32287 0.736C0.986812 1.34031 0.789688 2.032 0.789688 2.77662C0.789688 4.17477 1.48438 5.41415 2.51987 6.13169C1.89406 6.11938 1.28012 5.93108 0.76 5.63446C0.76 5.64677 0.76 5.66277 0.76 5.67877C0.76 7.64062 2.11019 9.27015 3.88075 9.64554C3.56369 9.73538 3.21812 9.77846 2.8595 9.77846C2.61012 9.77846 2.35837 9.76369 2.12206 9.70954C2.62675 11.3083 4.05888 12.4837 5.76175 12.5218C4.4365 13.5963 2.75381 14.2437 0.932188 14.2437C0.61275 14.2437 0.306375 14.2289 0 14.1883C1.72544 15.3415 3.77031 16 5.9755 16C13.1432 16 17.062 9.84615 17.062 4.512C17.062 4.33354 17.0561 4.16123 17.0477 3.99015C17.8208 3.42154 18.4704 2.71138 19 1.89415Z" fill="white"/>
</svg>
