<svg width="17" height="17" viewBox="0 0 17 17" fill="none" xmlns="http://www.w3.org/2000/svg">
<path fill-rule="evenodd" clip-rule="evenodd" d="M14.035 2.3982C12.4907 0.852536 10.4368 0.00087061 8.2486 0C3.73991 0 0.0703974 3.66814 0.0685866 8.17687C0.0679945 9.6181 0.444655 11.025 1.16049 12.265L0 16.5025L4.33633 15.3654C5.53112 16.0168 6.87627 16.3602 8.24534 16.3607H8.24872C12.757 16.3607 16.4268 12.6921 16.4286 8.18337C16.4295 5.99838 15.5794 3.94386 14.035 2.3982ZM8.2487 14.9797H8.24591C7.02593 14.9792 5.82937 14.6515 4.78547 14.0323L4.53719 13.885L1.96395 14.5598L2.65079 12.0517L2.4891 11.7946C1.80853 10.7124 1.44908 9.46163 1.44962 8.17741C1.4511 4.42996 4.50108 1.3811 8.25133 1.3811C10.0673 1.3818 11.7743 2.08973 13.058 3.37441C14.3417 4.65909 15.0482 6.36677 15.0475 8.18286C15.046 11.9306 11.9961 14.9797 8.2487 14.9797Z" fill="white"/>
<path d="M8.2487 14.9797H8.24591C7.02593 14.9792 5.82937 14.6515 4.78547 14.0323L4.53719 13.885L1.96395 14.5598L2.65079 12.0517L2.4891 11.7946C1.80853 10.7124 1.44908 9.46163 1.44962 8.17741C1.4511 4.42996 4.50108 1.3811 8.25133 1.3811C10.0673 1.3818 11.7743 2.08973 13.058 3.37441C14.3417 4.65909 15.0482 6.36677 15.0475 8.18286C15.046 11.9306 11.9961 14.9797 8.2487 14.9797Z" fill="white"/>
<path fill-rule="evenodd" clip-rule="evenodd" d="M5.50473 12.1378C5.56229 12.1726 5.68056 12.1725 5.9518 12.1723C7.10285 12.1713 8.09712 12.1677 8.80432 12.1677C12.1048 12.1677 12.018 8.69323 10.4749 8.25974C10.7009 7.8593 11.7307 7.10711 11.0938 5.55232C10.464 4.0149 7.75555 4.36378 5.90317 4.36469C5.21778 4.36478 5.32026 4.87123 5.32378 5.65865C5.32941 6.90586 5.32479 10.2818 5.32396 11.7412C5.32378 12.037 5.41305 12.0825 5.50473 12.1378ZM6.93279 10.8645C7.24443 10.8645 7.97952 10.8645 8.6096 10.8635C9.32315 10.8624 9.95855 10.5287 9.94267 9.81832C9.931 9.14917 9.48583 8.92957 8.86796 8.86826C8.27943 8.8739 7.60627 8.8739 6.93277 8.8739V10.8645H6.93279ZM6.93279 7.53002C8.17424 7.51301 8.65316 7.58006 9.33096 7.41029C9.79667 7.14594 10.0001 6.1655 9.33358 5.8325C8.87052 5.60114 7.50213 5.6803 6.93279 5.70401V7.53004V7.53002Z" fill="#000046"/>
</svg>
