<svg width="19" height="13" viewBox="0 0 19 13" fill="none" xmlns="http://www.w3.org/2000/svg">
<path d="M18.1055 1.25273C17.5925 0.340364 17.0359 0.172545 15.9025 0.108727C14.7704 0.0319091 11.9234 0 9.45691 0C6.98573 0 4.13755 0.0319092 3.00655 0.107546C1.87555 0.172546 1.31773 0.339182 0.800091 1.25273C0.271818 2.16391 0 3.73336 0 6.49645C0 6.49882 0 6.5 0 6.5C0 6.50236 0 6.50355 0 6.50355V6.50591C0 9.25718 0.271818 10.8385 0.800091 11.7402C1.31773 12.6525 1.87436 12.818 3.00536 12.8948C4.13755 12.961 6.98573 13 9.45691 13C11.9234 13 14.7704 12.961 15.9037 12.896C17.0371 12.8192 17.5937 12.6537 18.1066 11.7414C18.6396 10.8396 18.9091 9.25836 18.9091 6.50709C18.9091 6.50709 18.9091 6.50355 18.9091 6.50118C18.9091 6.50118 18.9091 6.49882 18.9091 6.49764C18.9091 3.73336 18.6396 2.16391 18.1055 1.25273Z" fill="white"/>
<path d="M7.08984 10.046V2.95508L12.9989 6.50053L7.08984 10.046Z" fill="#000046"/>
</svg>
